<svg width="954" height="118" viewBox="0 0 954 118" fill="none" xmlns="http://www.w3.org/2000/svg">
<path d="M0.0546875 0.613281L30.3242 0.613281C48.043 0.613281 59.3633 5.17969 64.2852 14.3125C67.1836 20.1094 68.6328 27.4648 68.6328 36.3789C68.4688 37.9648 68.3867 39.5781 68.3867 41.2188H85.2031V46.8789H67.8125V46.7148C68.0859 43.3242 68.2227 41.4922 68.2227 41.2188H58.4609V46.8789H67.8125V66.8125H48.4531V73.7031H48.2891C33.3594 73.8125 24.9102 73.8672 22.9414 73.8672V84.2031H18.8398V102.578H21.1367V118H2.76172V110.781H0.21875V104.711C0.21875 97.7109 0.164062 86.3086 0.0546875 70.5039H11.2109V64.5156H0.0546875V0.613281ZM22.9414 20.5469V53.9336H29.9141V49.0938H43.7773C45.6367 47.3984 46.5664 42.6406 46.5664 34.8203C46.5664 27.3281 44.8711 23.0352 41.4805 21.9414C40.2227 21.0117 37.3516 20.5469 32.8672 20.5469H22.9414ZM69.207 48.1094H69.7812C70.4375 48.6562 70.7656 49.1758 70.7656 49.668L72.0781 48.1094H72.8984V48.4375C71.8594 49.8594 71.3398 51.2266 71.3398 52.5391H70.7656C70.4922 52.5391 70.3008 51.7734 70.1914 50.2422C69.9727 50.2422 69.5078 49.5859 68.7969 48.2734L69.207 48.1094ZM68.9609 53.9336H72.4883V54.918H71.3398V58.0352C71.3398 58.3086 71.2031 58.4453 70.9297 58.4453H70.5195C70.3008 58.4453 70.1914 58.3086 70.1914 58.0352V54.918H68.9609V53.9336ZM86.2695 0.695312L126.465 0.695312C139.918 0.695312 148.613 5.42578 152.551 14.8867C154.246 19.7539 155.094 25.332 155.094 31.6211V36.543C155.094 47.918 152.605 56.5859 147.629 62.5469H139.098V66.8945H152.141V94.9492H144.43V99.2969H156.078V115.867H131.633V89.3711H122.199V72.2266H105.793V101.266H109.32V118H86.6797C86.4062 118 86.2695 117.863 86.2695 117.59V70.5039H96.3594V67.1406H86.2695V0.695312ZM109.32 19.8086V52.9492H114.898C123.266 52.9492 128.105 52.1562 129.418 50.5703C130.785 49.6953 131.852 47.918 132.617 45.2383H141.312V41.0547H133.438V41.4648C133 43.9805 132.672 45.2383 132.453 45.2383H121.215V41.0547H133.027C133.301 41.0547 133.438 40.9453 133.438 40.7266C133.547 37.3359 133.602 35.4219 133.602 34.9844C133.602 27.6563 132.344 23.1719 129.828 21.5312C127.859 20.3828 124.25 19.8086 119 19.8086H109.32ZM106.777 73.2109H107.762C108.309 73.4844 108.582 73.8945 108.582 74.4414C108.801 74.4414 109.047 74.0312 109.32 73.2109H110.551V73.457L109.32 75.1797C109.32 75.2891 109.785 76.0273 110.715 77.3945V77.5586H109.73C109.621 77.5586 109.238 77.0938 108.582 76.1641C108.199 77.0391 107.871 77.5039 107.598 77.5586H106.613C107.488 76.1914 107.926 75.3984 107.926 75.1797L106.777 73.2109ZM106.941 79.1172H110.551V79.7734L108.336 82.4805H110.551V83.4648H106.777V82.7266L108.91 79.9375H106.941V79.1172ZM203.738 0.449219C220.582 0.449219 231.656 6.35547 236.961 18.168C239.969 23.9102 241.473 34.9844 241.473 51.3906V51.9648H232.777V55.9023H241.473V98.3125H235.73V113.652H224.328V118H184.461V113.652H179.539V98.3125H169.285V86.3359H175.438V80.1016H169.285V86.3359H154.766V80.1016H165.758C165.648 70.4766 165.594 63.1211 165.594 58.0352V48.0273C165.594 29.4336 168.738 16.9922 175.027 10.7031C180.824 3.86719 190.395 0.449219 203.738 0.449219ZM189.383 40.9727H189.547L189.383 41.3008V51.9648H180.523V55.9023H189.383C189.219 72.8008 189.137 85.5703 189.137 94.2109V98.3125H208.824V91.832H217.848V91.668C217.848 83.6836 217.793 72.5547 217.684 58.2812C217.684 57.6797 217.738 56.1484 217.848 53.6875C217.848 38.2109 216.945 28.7227 215.141 25.2227C213.281 21.832 209.863 20.1367 204.887 20.1367H201.934C196.027 20.1367 192.363 22.7344 190.941 27.9297C190.285 30.5547 189.766 34.9023 189.383 40.9727ZM241.473 51.9648H255.582V55.9023H241.473V51.9648ZM242.457 56.6406H242.867C243.195 56.6406 243.441 57.4336 243.605 59.0195C243.824 59.0195 244.152 58.2266 244.59 56.6406H245.164C245.492 56.6406 245.766 57.4883 245.984 59.1836H246.148L246.723 56.6406H247.707V56.8867C247.105 59.7305 246.668 61.1523 246.395 61.1523H245.574C245.574 60.9336 245.383 60.0859 245 58.6094H244.836C244.617 60.3047 244.344 61.1523 244.016 61.1523H243.195C242.812 59.457 242.43 58.0352 242.047 56.8867L242.457 56.6406ZM242.867 62.5469H243.605C243.934 62.5469 244.344 63.4766 244.836 65.3359H245C245 65.0625 245.246 64.1328 245.738 62.5469H247.133V67.0586H246.148V64.7617H245.984C245.602 66.293 245.273 67.0586 245 67.0586H244.426C244.043 65.8555 243.852 65.1445 243.852 64.9258H243.605C243.605 66.3477 243.469 67.0586 243.195 67.0586H242.457V62.957C242.512 62.6836 242.648 62.5469 242.867 62.5469ZM242.211 68.4531H243.031C243.688 68.8359 244.016 69.3008 244.016 69.8477C244.07 69.8477 244.453 69.3828 245.164 68.4531H245.984V68.8633L244.836 70.5859C244.836 70.6953 245.273 71.4336 246.148 72.8008V72.9648H245.164L244.016 71.5703C243.578 72.5 243.25 72.9648 243.031 72.9648H242.047C242.977 71.5977 243.441 70.8047 243.441 70.5859C242.621 69.3828 242.211 68.6719 242.211 68.4531ZM242.867 74.3594H244.016C245.328 74.3594 245.984 74.8242 245.984 75.7539V75.918L245.574 76.4922C245.793 76.4922 245.984 76.7109 246.148 77.1484V77.8867C245.875 78.543 245.219 78.8711 244.18 78.8711H242.457V74.7695C242.512 74.4961 242.648 74.3594 242.867 74.3594ZM243.605 75.3438V76.1641H244.836V75.3438H243.605ZM213.172 75.3438H214.32V76.9023H215.715V75.7539C215.77 75.4805 215.906 75.3438 216.125 75.3438H216.863V79.6914H215.715V77.8867H214.32V79.6914H213.172V75.3438ZM243.605 76.9023V77.8867H245V77.3125C245 77.0391 244.863 76.9023 244.59 76.9023H243.605ZM242.867 80.2656H245.41C245.629 80.3203 245.738 80.457 245.738 80.6758V81.25H243.605V81.9883H245.574V82.9727H243.605V83.793H245.738V84.7773H242.457V80.6758C242.512 80.4023 242.648 80.2656 242.867 80.2656ZM213.172 81.25H216.453V81.6602C216.453 82.1523 215.797 83.1367 214.484 84.6133C215.961 84.6133 216.699 84.7227 216.699 84.9414V85.5977H212.926V84.7773C213.91 83.6289 214.566 82.7812 214.895 82.2344H213.172V81.25ZM192.5 86.9102C193.648 86.9102 194.305 87.7852 194.469 89.5352C194.469 90.793 193.676 91.5039 192.09 91.668C190.777 91.3398 190.121 90.6289 190.121 89.5352C190.121 87.7852 190.914 86.9102 192.5 86.9102ZM214.32 87.1562H215.469C215.469 87.4844 216.016 88.9062 217.109 91.4219H216.125C215.852 91.4219 215.715 91.1758 215.715 90.6836H214.32C214.047 90.6836 213.91 90.9297 213.91 91.4219H212.762V91.2578C213.035 90.7656 213.555 89.3984 214.32 87.1562ZM191.352 88.7148V89.5352C191.352 90.3008 191.734 90.6836 192.5 90.6836C193.047 90.5742 193.32 90.1914 193.32 89.5352V88.7148C193.32 88.4961 193.047 88.2227 192.5 87.8945H192.09C191.926 87.8945 191.68 88.168 191.352 88.7148ZM214.73 88.7148L214.484 89.6992H215.305C215.141 89.043 214.949 88.7148 214.73 88.7148ZM192.09 92.8164C192.965 92.8164 193.621 93.2266 194.059 94.0469V94.6211H193.074C193.074 94.0742 192.691 93.8008 191.926 93.8008L191.352 94.6211V95.3594C191.352 96.1797 191.734 96.5898 192.5 96.5898C192.609 96.5898 192.938 96.2617 193.484 95.6055H194.305C194.305 96.6992 193.566 97.3555 192.09 97.5742C190.777 97.1914 190.121 96.4531 190.121 95.3594C190.285 93.6641 190.941 92.8164 192.09 92.8164ZM292.086 0.53125H314.645V39.0859H312.348V81.0039H314.645V114.719H260.504V107.5H250.168V94.2109H256.402V91.9141H250.168V88.9609H272.398V97.1641H292.25V85.8438C292.25 81.9609 292.195 76.6289 292.086 69.8477H274.695V68.125H292.086V0.53125ZM292.25 68.125V69.8477H298.895V68.125H292.25ZM272.973 116.441H301.766V118H272.973V116.441ZM329.492 0.53125L387.406 0.53125V19.7266C387.406 20 387.27 20.1367 386.996 20.1367H352.625V45.6484H383.469V45.8125C383.469 46.5781 383.332 50.7344 383.059 58.2812C382.949 58.2812 382.895 58.3633 382.895 58.5273H384.289V64.4336H357.547V88.5508H350.41V90.9297H357.547V98.2305H387.816V101.02H385.438V115.457H349.262V118H332.035V75.918H329.492V61.0703H310.707V58.5273H329.492V0.53125ZM329.656 58.5273V61.0703H339.336V58.5273H329.656ZM359.352 92.3242H360.746V94.293H360.91C360.91 93.9102 361.512 93.2539 362.715 92.3242H364.109L362.141 94.457L364.273 97.6562H362.879C361.84 96.1797 361.266 95.4414 361.156 95.4414C360.883 95.4961 360.746 95.6328 360.746 95.8516V97.6562H359.352V92.3242ZM366.242 92.3242H369.031C369.906 92.3242 370.508 92.8438 370.836 93.8828C370.836 94.0469 370.562 94.5117 370.016 95.2773C370.398 95.2773 370.672 96.0703 370.836 97.6562H369.852C369.578 97.6562 369.359 97 369.195 95.6875H367.637V97.6562H366.242V92.3242ZM375.184 92.3242H375.922C377.125 92.3242 377.863 93.1172 378.137 94.7031V95.4414C378.137 95.8789 377.945 96.3438 377.562 96.8359V97.082C377.945 97.082 378.137 97.1914 378.137 97.4102C378.137 97.6289 377.945 97.8477 377.562 98.0664C377.344 98.0664 377.125 97.8477 376.906 97.4102L375.922 97.6562H375.184C373.871 97.6562 373.133 96.6719 372.969 94.7031C373.352 93.1172 374.09 92.3242 375.184 92.3242ZM374.363 94.7031V95.2773C374.363 96.207 374.828 96.6719 375.758 96.6719H375.922V96.4258H375.594V96.2617C375.594 96.043 375.785 95.8516 376.168 95.6875L376.742 96.0156C376.742 95.9609 376.797 95.5781 376.906 94.8672C376.852 93.8281 376.332 93.3086 375.348 93.3086C374.691 93.4727 374.363 93.9375 374.363 94.7031ZM367.637 93.4727V94.7031H369.031C369.305 94.7031 369.441 94.5664 369.441 94.293V93.8828C369.441 93.6094 369.305 93.4727 369.031 93.4727H367.637ZM386.668 102.168H387.816V102.414C387.816 104.766 387.625 105.941 387.242 105.941C386.859 105.941 386.668 105.094 386.668 103.398V102.168ZM386.668 106.105H387.816V107.336H386.668V106.105ZM437.938 0.449219C454.344 0.449219 464.68 5.5625 468.945 15.7891C470.148 18.3047 470.75 19.9727 470.75 20.793H460.414V23.9102H471.488V23.7461C471.488 23.1992 471.242 22.2148 470.75 20.793H489.699V23.9102H471.734V24.1562C472.664 28.5312 473.32 33.2617 473.703 38.3477C473.703 38.6211 466.512 39.1406 452.129 39.9062V39.7422C452.129 26.6719 447.645 20.1367 438.676 20.1367H436.379C429.652 20.1367 425.551 22.9805 424.074 28.668C422.871 33.4805 422.27 39.7969 422.27 47.6172V63.6133L422.105 65.9922H414.641V69.7656H422.105V98.2305H453.77V68.6172H471.898V98.2305H461.809V116.441H440.727V118H424.32V116.441H407.668V107.336H418.742V103.398H402.172V89.9453H395.035V73.375H398.809C398.645 66.4844 398.562 61.0703 398.562 57.1328C398.562 39.25 399.438 27.9844 401.188 23.3359C402.773 17.9766 405.398 13.3555 409.062 9.47266C415.57 3.45703 425.195 0.449219 437.938 0.449219ZM423.664 92.3242H424.648V96.4258H427.027V97.6562H423.664C423.445 97.6562 423.336 97.5195 423.336 97.2461V92.7344C423.336 92.4609 423.445 92.3242 423.664 92.3242ZM448.355 92.3242H449.586C450.242 92.8711 450.57 93.3906 450.57 93.8828C450.68 93.8828 451.145 93.3633 451.965 92.3242H452.949V92.7344C452.02 93.9375 451.555 94.7852 451.555 95.2773C451.719 95.2773 452.238 95.9883 453.113 97.4102V97.6562H451.965L450.57 96.0977C450.078 97.0273 449.695 97.5469 449.422 97.6562H448.191C448.465 97.1094 449.066 96.1797 449.996 94.8672L448.355 92.4883V92.3242ZM464.598 99.4609C465.91 99.7891 466.566 100.172 466.566 100.609V101.43H465.746L465.008 100.609H464.188C463.914 100.664 463.777 100.801 463.777 101.02V101.43C465.801 101.812 466.812 102.25 466.812 102.742V103.398C466.812 104.438 466.211 104.957 465.008 104.957H464.188C463.477 104.957 462.902 104.574 462.465 103.809V102.988H463.613C463.613 103.645 463.996 103.973 464.762 103.973H465.008C465.172 103.973 465.363 103.781 465.582 103.398C465.582 103.234 464.652 102.77 462.793 102.004L462.629 101.594V100.609C462.629 100.172 463.285 99.7891 464.598 99.4609ZM475.59 0.449219L544.496 0.449219V20.0547H521.691V101.348H532.027V103.727H521.691V112.668H515.539V115.785H519.887V118H498.969C498.695 118 498.559 117.863 498.559 117.59V20.0547H475.59V0.449219ZM513.57 101.348V103.727H521.527V101.348H513.57ZM620.785 0.777344C633.801 0.777344 642.523 4.96094 646.953 13.3281C650.016 19.6719 651.547 25.8789 651.547 31.9492H651.383C642.469 32.7148 636.371 33.0977 633.09 33.0977C633.09 28.7773 631.75 25.1406 629.07 22.1875C626.555 20.7656 624.23 20.0547 622.098 20.0547H618.816C613.238 20.0547 609.848 22.2148 608.645 26.5352C608.371 27.793 608.234 28.7773 608.234 29.4883V31.2109C608.234 37.3359 611.461 41.7656 617.914 44.5C618.461 44.9922 622.945 47.043 631.367 50.6523C635.852 52.7305 640.008 55.3008 643.836 58.3633V58.5273H623.246V60.8242H650.398V64.1055H653.844V99.707H647.117V118H594.945V99.707H582.641V87.4023H589.613V83.1367H582.641V80.2656H606.512V99.707H630.957V70.4219H612.664V60.8242H589.941V58.5273H600.934V58.3633C591.309 51.9648 586.496 42.9141 586.496 31.2109V29.6523C586.496 19.8633 589.504 12.4258 595.52 7.33984C600.988 2.96484 609.41 0.777344 620.785 0.777344ZM650.398 58.5273H658.684V60.8242H650.398V58.5273ZM574.766 83.1367H582.641V87.4023H574.766V83.1367ZM627.348 83.1367H629.809C630.082 83.1914 630.219 83.3281 630.219 83.5469V84.1211H628.086V84.8594H629.973V85.4336C629.973 85.707 629.863 85.8438 629.645 85.8438H628.086V86.6641H630.219V87.2383C630.219 87.457 630.082 87.5664 629.809 87.5664H627.348C627.074 87.5664 626.938 87.457 626.938 87.2383V83.5469C626.992 83.2734 627.129 83.1367 627.348 83.1367ZM626.363 88.9609H627.102C627.211 88.9609 627.676 89.4531 628.496 90.4375C628.879 89.4531 629.18 88.9609 629.398 88.9609H629.973C630.246 88.9609 630.383 89.0703 630.383 89.2891C629.234 90.6016 628.66 91.9688 628.66 93.3906H628.086C627.812 93.3906 627.621 92.625 627.512 91.0938C626.746 90.0547 626.363 89.3438 626.363 88.9609ZM625.789 94.7031H626.527C626.855 94.7031 627.184 95.5508 627.512 97.2461H627.922C628.25 95.5508 628.551 94.7031 628.824 94.7031H629.645C629.863 94.7578 629.973 94.8945 629.973 95.1133V98.7227C629.973 98.9961 629.863 99.1328 629.645 99.1328H629.07V96.6719H628.824L628.086 99.1328H627.512C627.238 99.1328 626.91 98.3125 626.527 96.6719H626.363V99.1328H625.789C625.516 99.1328 625.379 98.9961 625.379 98.7227V95.1133C625.434 94.8398 625.57 94.7031 625.789 94.7031ZM648.266 100.691H650.234C651.273 100.691 651.793 101.211 651.793 102.25C651.52 102.25 651.383 102.359 651.383 102.578C651.766 103.07 651.957 103.535 651.957 103.973C651.629 104.738 650.918 105.121 649.824 105.121H648.676C648.402 105.121 648.266 104.984 648.266 104.711V100.691ZM649.414 101.676V102.414H650.234C650.453 102.414 650.562 102.277 650.562 102.004V101.676H649.414ZM649.414 103.152V104.137H650.398C650.672 104.137 650.809 104 650.809 103.727V103.562C650.809 103.289 650.672 103.152 650.398 103.152H649.414ZM648.266 106.434H649.086C649.359 106.434 649.934 107.336 650.809 109.141H650.973V106.434H651.957V110.453C651.957 110.727 651.82 110.863 651.547 110.863H651.137C651.027 110.863 650.398 110.043 649.25 108.402V110.453C649.25 110.727 649.113 110.863 648.84 110.863H648.676C648.402 110.863 648.266 110.727 648.266 110.453V106.434ZM664.59 0.449219L688.625 0.449219C688.953 0.449219 691.523 6.73828 696.336 19.3164C696.773 19.7539 701.805 32.1406 711.43 56.4766H717.582V0.449219L738.664 0.449219V67.1406H741.043V93.1445H732.512V98.1484H741.043V113.652H709.461V93.9648H703.883C696.336 75.5352 691.25 62.8203 688.625 55.8203V35.9688H685.672V96.3438H680.914V117.18H661.227V72.3086H664.836V72.1445C664.672 33.4258 664.59 9.52734 664.59 0.449219ZM739.648 36.9531H741.863C742.902 36.9531 743.422 37.5 743.422 38.5938C743.422 38.9766 743.23 39.168 742.848 39.168C743.23 39.6602 743.422 40.2617 743.422 40.9727V41.3828H742.438C742.328 40.2891 742.137 39.7422 741.863 39.7422H740.879V41.3828H739.648V36.9531ZM740.879 37.9375V39.0039H741.863C742.137 39.0039 742.273 38.8672 742.273 38.5938V37.9375H740.879ZM739.648 42.9414H743.012V43.9258H741.863V47.2891H740.633V43.9258H739.648C739.375 43.9258 739.238 43.7891 739.238 43.5156V43.3516C739.293 43.0781 739.43 42.9414 739.648 42.9414ZM739.238 48.9297H740.059C740.387 48.9297 740.715 49.7773 741.043 51.4727H741.453L742.027 48.9297H743.258L741.863 53.2773H740.879C740.551 53.2773 740.004 51.8281 739.238 48.9297ZM739.484 54.8359H740.633C740.688 55.3281 740.961 55.7383 741.453 56.0664C741.891 55.2461 742.219 54.8359 742.438 54.8359H743.258V55.082C742.438 56.2852 742.027 56.9961 742.027 57.2148C742.246 57.2695 742.711 57.9258 743.422 59.1836H742.027C742.027 58.8008 741.781 58.418 741.289 58.0352C740.797 58.8008 740.441 59.1836 740.223 59.1836H739.238C740.168 57.8164 740.633 57.1055 740.633 57.0508C739.867 55.793 739.484 55.0547 739.484 54.8359ZM699.945 56.4766V60.8242H713.07C712.031 57.9258 711.375 56.4766 711.102 56.4766H699.945ZM717.828 56.4766V60.8242H713.234C716.023 67.8242 717.691 72.3906 718.238 74.5234H718.402V73.9492C718.02 66.7852 717.828 62.4102 717.828 60.8242H727.344V56.4766H717.828ZM739.648 60.8242H741.617C742.984 60.9883 743.668 61.6445 743.668 62.793V62.957C743.668 64.4336 743.066 65.1719 741.863 65.1719H739.648V60.8242ZM740.879 61.8086V64.3516C741.918 64.3516 742.438 63.9688 742.438 63.2031V62.957C742.438 62.3008 742.246 61.918 741.863 61.8086H740.879ZM705.113 95.1953H708.066V96.1797H705.934V96.918H707.656C707.93 96.9727 708.066 97.1094 708.066 97.3281V97.5742C708.066 97.8477 707.93 97.9844 707.656 97.9844H705.934V98.7227H707.902C708.176 98.7773 708.312 98.9141 708.312 99.1328V99.2969C708.312 99.5703 708.176 99.707 707.902 99.707H705.113C704.84 99.707 704.703 99.5703 704.703 99.2969V95.5234C704.758 95.3047 704.895 95.1953 705.113 95.1953ZM681.242 97.3281H682.473C683.02 98.9688 683.293 99.8984 683.293 100.117H683.457C683.785 98.2578 684.113 97.3281 684.441 97.3281H685.262V97.5742C684.441 100.363 683.922 101.758 683.703 101.758H682.637C682.637 101.375 682.172 99.8984 681.242 97.3281ZM706.672 101.102H707.082C707.355 101.156 707.492 101.293 707.492 101.512V104.137C707.492 104.848 707.164 105.367 706.508 105.695H705.934C705.004 105.695 704.539 105.23 704.539 104.301V103.891H705.523C705.523 104.438 705.66 104.711 705.934 104.711H706.262V101.512C706.316 101.238 706.453 101.102 706.672 101.102ZM705.113 107.09H705.523C705.797 107.09 705.934 107.609 705.934 108.648L707.656 107.09H708.723V107.254L707.082 109.059C707.246 109.059 707.848 109.852 708.887 111.438L708.477 111.684H707.902C707.738 111.684 707.191 111.082 706.262 109.879C706.043 109.879 705.852 110.48 705.688 111.684H705.113C704.84 111.684 704.703 111.547 704.703 111.273V107.5C704.758 107.227 704.895 107.09 705.113 107.09ZM709.461 115.785H747.605V118H709.461V115.785ZM795.02 0.449219C811.863 0.449219 822.938 6.35547 828.242 18.168C831.25 23.9102 832.754 34.9844 832.754 51.3906V51.9648H824.059V55.9023H832.754V98.3125H827.012V113.652H815.609V118H775.742V113.652H770.82V98.3125H760.566V86.3359H766.719V80.1016H760.566V86.3359H746.047V80.1016H757.039C756.93 70.4766 756.875 63.1211 756.875 58.0352V48.0273C756.875 29.4336 760.02 16.9922 766.309 10.7031C772.105 3.86719 781.676 0.449219 795.02 0.449219ZM780.664 40.9727H780.828L780.664 41.3008V51.9648H771.805V55.9023H780.664C780.5 72.8008 780.418 85.5703 780.418 94.2109V98.3125H800.105V91.832H809.129V91.668C809.129 83.6836 809.074 72.5547 808.965 58.2812C808.965 57.6797 809.02 56.1484 809.129 53.6875C809.129 38.2109 808.227 28.7227 806.422 25.2227C804.562 21.832 801.145 20.1367 796.168 20.1367H793.215C787.309 20.1367 783.645 22.7344 782.223 27.9297C781.566 30.5547 781.047 34.9023 780.664 40.9727ZM832.754 51.9648H846.863V55.9023H832.754V51.9648ZM833.738 56.6406H834.148C834.477 56.6406 834.723 57.4336 834.887 59.0195C835.105 59.0195 835.434 58.2266 835.871 56.6406H836.445C836.773 56.6406 837.047 57.4883 837.266 59.1836H837.43L838.004 56.6406H838.988V56.8867C838.387 59.7305 837.949 61.1523 837.676 61.1523H836.855C836.855 60.9336 836.664 60.0859 836.281 58.6094H836.117C835.898 60.3047 835.625 61.1523 835.297 61.1523H834.477C834.094 59.457 833.711 58.0352 833.328 56.8867L833.738 56.6406ZM834.148 62.5469H834.887C835.215 62.5469 835.625 63.4766 836.117 65.3359H836.281C836.281 65.0625 836.527 64.1328 837.02 62.5469H838.414V67.0586H837.43V64.7617H837.266C836.883 66.293 836.555 67.0586 836.281 67.0586H835.707C835.324 65.8555 835.133 65.1445 835.133 64.9258H834.887C834.887 66.3477 834.75 67.0586 834.477 67.0586H833.738V62.957C833.793 62.6836 833.93 62.5469 834.148 62.5469ZM833.492 68.4531H834.312C834.969 68.8359 835.297 69.3008 835.297 69.8477C835.352 69.8477 835.734 69.3828 836.445 68.4531H837.266V68.8633L836.117 70.5859C836.117 70.6953 836.555 71.4336 837.43 72.8008V72.9648H836.445L835.297 71.5703C834.859 72.5 834.531 72.9648 834.312 72.9648H833.328C834.258 71.5977 834.723 70.8047 834.723 70.5859C833.902 69.3828 833.492 68.6719 833.492 68.4531ZM834.148 74.3594H835.297C836.609 74.3594 837.266 74.8242 837.266 75.7539V75.918L836.855 76.4922C837.074 76.4922 837.266 76.7109 837.43 77.1484V77.8867C837.156 78.543 836.5 78.8711 835.461 78.8711H833.738V74.7695C833.793 74.4961 833.93 74.3594 834.148 74.3594ZM834.887 75.3438V76.1641H836.117V75.3438H834.887ZM804.453 75.3438H805.602V76.9023H806.996V75.7539C807.051 75.4805 807.188 75.3438 807.406 75.3438H808.145V79.6914H806.996V77.8867H805.602V79.6914H804.453V75.3438ZM834.887 76.9023V77.8867H836.281V77.3125C836.281 77.0391 836.145 76.9023 835.871 76.9023H834.887ZM834.148 80.2656H836.691C836.91 80.3203 837.02 80.457 837.02 80.6758V81.25H834.887V81.9883H836.855V82.9727H834.887V83.793H837.02V84.7773H833.738V80.6758C833.793 80.4023 833.93 80.2656 834.148 80.2656ZM804.453 81.25H807.734V81.6602C807.734 82.1523 807.078 83.1367 805.766 84.6133C807.242 84.6133 807.98 84.7227 807.98 84.9414V85.5977H804.207V84.7773C805.191 83.6289 805.848 82.7812 806.176 82.2344H804.453V81.25ZM783.781 86.9102C784.93 86.9102 785.586 87.7852 785.75 89.5352C785.75 90.793 784.957 91.5039 783.371 91.668C782.059 91.3398 781.402 90.6289 781.402 89.5352C781.402 87.7852 782.195 86.9102 783.781 86.9102ZM805.602 87.1562H806.75C806.75 87.4844 807.297 88.9062 808.391 91.4219H807.406C807.133 91.4219 806.996 91.1758 806.996 90.6836H805.602C805.328 90.6836 805.191 90.9297 805.191 91.4219H804.043V91.2578C804.316 90.7656 804.836 89.3984 805.602 87.1562ZM782.633 88.7148V89.5352C782.633 90.3008 783.016 90.6836 783.781 90.6836C784.328 90.5742 784.602 90.1914 784.602 89.5352V88.7148C784.602 88.4961 784.328 88.2227 783.781 87.8945H783.371C783.207 87.8945 782.961 88.168 782.633 88.7148ZM806.012 88.7148L805.766 89.6992H806.586C806.422 89.043 806.23 88.7148 806.012 88.7148ZM783.371 92.8164C784.246 92.8164 784.902 93.2266 785.34 94.0469V94.6211H784.355C784.355 94.0742 783.973 93.8008 783.207 93.8008L782.633 94.6211V95.3594C782.633 96.1797 783.016 96.5898 783.781 96.5898C783.891 96.5898 784.219 96.2617 784.766 95.6055H785.586C785.586 96.6992 784.848 97.3555 783.371 97.5742C782.059 97.1914 781.402 96.4531 781.402 95.3594C781.566 93.6641 782.223 92.8164 783.371 92.8164ZM841.203 0.449219L863.434 0.449219L869.996 59.5117H876.148C876.258 59.0195 878.062 39.332 881.562 0.449219H909.699C913.309 40.5898 915.195 61.043 915.359 61.8086H924.629C928.73 26.5898 931.027 6.13672 931.52 0.449219L953.75 0.449219L944.48 62.793H942.758V74.3594H925.941V77.3125H939.23V94.8672H926.516V110.289H923.07V117.016H908.797V79.0352H899.527V65.3359C899.527 64.1328 898.297 53.0586 895.836 32.1133H895.426V32.2773L892.391 59.5117H893.867V101.594H880.168V118H862.613V101.594H855.887V62.793H850.473L841.203 0.449219ZM851.211 64.5156H852.359L853.18 67.0586H853.344C853.727 65.3633 854.055 64.5156 854.328 64.5156H855.066V64.7617C854.301 67.4414 853.809 68.7812 853.59 68.7812H852.605C852.605 68.3984 852.141 66.9766 851.211 64.5156ZM851.047 70.3398H852.195V73.2109C852.195 73.3203 852.469 73.5117 853.016 73.7852C853.508 73.6211 853.754 73.4297 853.754 73.2109V70.3398H854.902V72.4727C854.902 73.5664 854.52 74.2773 853.754 74.6055H852.605C851.566 74.6055 851.047 73.8945 851.047 72.4727V70.3398ZM851.047 76.082H853.918C854.137 76.082 854.41 76.3555 854.738 76.9023V77.6406L854.328 78.2148C854.547 78.6523 854.738 79.3633 854.902 80.3477H853.754C853.754 80.0195 853.699 79.5 853.59 78.7891H852.195V80.3477H851.457C851.184 80.3477 851.047 80.2109 851.047 79.9375V76.082ZM852.195 76.9023V77.8867H853.344C853.617 77.8867 853.754 77.75 853.754 77.4766C853.645 77.2031 853.59 77.0117 853.59 76.9023H852.195ZM851.785 81.9062H854.902V82.8906H853.016V83.4648H854.328C854.602 83.5195 854.738 83.6562 854.738 83.875V84.4492H853.016V86.1719H852.195C851.922 86.1719 851.785 86.0352 851.785 85.7617V81.9062ZM853.016 87.4844C854.164 87.7578 854.738 88.2773 854.738 89.043L854.328 89.207H853.918L853.18 88.4688H852.605C852.059 88.6875 851.785 89.125 851.785 89.7812C851.785 90.7109 852.195 91.1758 853.016 91.1758C853.508 90.957 853.754 90.7656 853.754 90.6016V90.4375C853.098 90.4375 852.77 90.3008 852.77 90.0273V89.7812C852.824 89.5625 852.961 89.4531 853.18 89.4531H854.738V91.9141H854.492C854.383 91.9141 854.191 91.8594 853.918 91.75L852.77 91.9141H852.605C851.457 91.75 850.883 91.1758 850.883 90.1914V89.4531C850.883 88.3594 851.594 87.7031 853.016 87.4844ZM851.047 93.4727H852.195V95.0312H853.754V93.4727H854.902V97.3281C854.902 97.6016 854.766 97.7383 854.492 97.7383H853.754V96.0156H852.195V97.7383H851.457C851.184 97.7383 851.047 97.6016 851.047 97.3281V93.4727ZM927.09 95.7695H928.238C928.512 96.918 928.648 97.7109 928.648 98.1484H928.812C929.195 96.8906 929.387 96.0977 929.387 95.7695H930.207C930.535 95.7695 930.781 96.6172 930.945 98.3125H931.191C931.41 96.6172 931.656 95.7695 931.93 95.7695H932.668C932.066 98.6133 931.629 100.035 931.355 100.035H930.535L929.961 97.7383H929.797C929.523 99.1602 929.387 99.9258 929.387 100.035H928.238C928.02 98.9414 927.637 97.5195 927.09 95.7695ZM927.254 101.594H928.238C928.512 101.594 928.785 101.977 929.059 102.742C929.277 102.742 929.523 102.359 929.797 101.594H930.945V101.758L929.797 103.562C929.797 103.617 930.262 104.301 931.191 105.613V105.859H930.207C929.879 105.859 929.551 105.395 929.223 104.465C928.566 105.395 928.184 105.859 928.074 105.859H927.09C927.09 105.75 927.555 105.039 928.484 103.727V103.562L927.254 101.758V101.594Z" fill="white"/>
</svg>
